<?xml version="1.0" encoding="UTF-8"?>
<svg width="110px" height="110px" viewBox="0 0 110 110" version="1.1" xmlns="http://www.w3.org/2000/svg" xmlns:xlink="http://www.w3.org/1999/xlink">
    <!-- Generator: Sketch 55.2 (78181) - https://sketchapp.com -->
    <title>Illustration - 1</title>
    <desc>Created with Sketch.</desc>
    <g id="Batch-1" stroke="none" stroke-width="1" fill="none" fill-rule="evenodd">
        <g id="0---Homepage---Desktop" transform="translate(-503.000000, -460.000000)">
            <g id="Group-4" transform="translate(410.000000, 438.000000)">
                <g id="Illustration---1" transform="translate(95.000000, 24.000000)">
                    <g id="Group-8">
                        <circle id="Oval" stroke-opacity="0.11" stroke="#414E58" stroke-width="3.4" fill="#FFFFFF" cx="52.7" cy="52.7" r="52.7"></circle>
                        <g id="airplane" transform="translate(3.400000, 0.000000)" fill-rule="nonzero">
                            <path d="M90.4836369,32.3 L62.5160176,32.3 C56.1674039,32.3 51,27.2272751 51,20.994983 C51,14.762691 56.1674039,9.68996608 62.5160176,9.68996608 C63.1461804,9.68996608 63.7728883,9.74016086 64.3916501,9.84021126 C66.6849728,3.97624033 72.4694111,0 78.9676193,0 C85.5366518,0 91.4444279,4.12004158 93.6607076,10.1295095 C98.5468876,11.5024045 102,15.9256497 102,20.9953222 C102,27.2272751 96.8322506,32.3 90.4836369,32.3 Z" id="Path" fill="#F1F4F5"></path>
                            <path d="M99.6697413,53.17222 C93.9219311,50.3088854 87.4851568,48.7962581 81.0583926,48.7962581 L60.3332083,48.7962581 L41.7052914,35.7 L25.7106943,35.7 L38.8600356,48.7962581 L25.3720803,48.7962581 L10.5790283,35.7 L0.85,35.7 L7.36236699,50.2958218 L5.02347905,50.6839482 L5.02347905,56.1861298 L6.07383856,56.9341928 C13.644504,62.3201772 22.5647934,65.1670104 31.8682241,65.1670104 L35.5729591,65.1670104 L23.5461185,77.1449557 L25.2260723,78.2498612 C25.7503892,78.595359 26.2450212,78.9931112 26.6954711,79.4317731 L27.1752607,79.9 L36.7758848,79.9 L57.7326797,65.1666667 L80.6455664,65.1666667 C86.3146773,65.1666667 91.8308769,64.038728 97.0395279,61.8155097 L99.4457244,60.7889859 C100.997274,60.1244612 102,58.610115 102,56.9286923 C102,55.3280576 101.107729,53.8889991 99.6697413,53.17222 Z M33.646207,38.9741505 L40.663216,38.9741505 L54.6344126,48.7962581 L43.5084718,48.7962581 L33.646207,38.9741505 Z M5.90919134,38.9741505 L9.32984947,38.9741505 L20.4247248,48.7962581 L18.1614296,48.7962581 C16.9878435,48.7962581 15.8059734,48.8945789 14.6489556,49.0860637 L10.7122648,49.7392437 L5.90919134,38.9741505 Z M98.1509829,57.7788576 L95.7447863,58.8053815 C90.9451646,60.8549914 85.8680243,61.89286 80.6459116,61.89286 L62.3897453,61.89286 L65.1445659,59.9563533 L63.2478438,57.2814095 L35.7327739,76.6261933 L28.7154198,76.6261933 L45.633698,59.7762131 L43.3096525,57.4615496 L38.8603807,61.89286 L31.867879,61.89286 C23.3880295,61.89286 15.2519717,59.3375512 8.31055548,54.4998942 L8.31055548,53.4572127 L15.1894955,52.3144916 C16.1690947,52.1525717 17.1700945,52.0704086 18.1614296,52.0704086 L81.0583926,52.0704086 C86.978789,52.0704086 92.9060888,53.4634008 98.1986167,56.0991538 C98.5158301,56.2579796 98.7129235,56.5756314 98.7129235,56.9290361 C98.7129235,57.2989422 98.4909776,57.6330953 98.1509829,57.7788576 Z" id="Shape" fill="#414E58"></path>
                            <path d="M29.2694167,99.45 L9.75635842,99.45 C4.37569482,99.45 0,95.0183305 0,89.5688365 C0,84.7304522 3.51721997,80.6328698 8.16473102,79.8571374 C10.450924,75.7235871 14.8071546,73.1 19.5130583,73.1 C25.6955115,73.1 30.9901227,77.5285569 32.2354918,83.5642597 C35.3251817,84.78475 37.4,87.7884217 37.4,91.2157547 C37.4,95.7560198 33.752677,99.45 29.2694167,99.45 Z" id="Path" fill="#F1F4F5"></path>
                            <rect id="Rectangle" fill="#414E58" x="55.25" y="83.3" width="33.15" height="3.4"></rect>
                            <rect id="Rectangle" fill="#F58025" x="49.3" y="83.3" width="3.4" height="3.4"></rect>
                            <rect id="Rectangle" fill="#414E58" x="14.45" y="11.05" width="26.35" height="3.4"></rect>
                            <rect id="Rectangle" fill="#F58025" x="8.5" y="11.05" width="3.4" height="3.4"></rect>
                            <rect id="Rectangle" fill="#414E58" x="8.5" y="19.55" width="24.65" height="3.4"></rect>
                            <rect id="Rectangle" fill="#F58025" x="1.7" y="19.55" width="3.4" height="3.4"></rect>
                        </g>
                    </g>
                </g>
            </g>
        </g>
    </g>
</svg>