<?xml version="1.0" encoding="UTF-8"?>
<svg width="25px" height="25px" viewBox="0 0 25 25" version="1.1" xmlns="http://www.w3.org/2000/svg" xmlns:xlink="http://www.w3.org/1999/xlink">
    <!-- Generator: Sketch 55.2 (78181) - https://sketchapp.com -->
    <title>Group</title>
    <desc>Created with Sketch.</desc>
    <g id="Batch-1" stroke="none" stroke-width="1" fill="none" fill-rule="evenodd">
        <g id="0---Navigation-1---Tablet" transform="translate(-54.000000, -89.000000)">
            <g id="Group-5" transform="translate(54.000000, 89.000000)">
                <g id="Group">
                    <g id="Group-4">
                        <circle id="Oval" fill="#F1F4F5" cx="12.5" cy="12.5" r="12.5"></circle>
                        <g id="user" transform="translate(3.000000, 3.000000)" fill="#757F8A" fill-rule="nonzero">
                            <path d="M9.49687167,10.9000477 C12.5253245,10.9000477 15.000937,8.44874187 15.000937,5.45002386 C15.000937,2.45130586 12.5253245,0 9.49687167,0 C6.46841889,0 3.9928523,2.45130586 3.9928523,5.45002386 C3.9928523,8.44874187 6.46846489,10.9000477 9.49687167,10.9000477 Z" id="Path"></path>
                            <path d="M18.942724,15.2552928 C18.7984988,14.8982928 18.6062446,14.5651171 18.3899298,14.2557202 C17.2842954,12.6373536 15.5778378,11.5663991 13.6550194,11.3046052 C13.4146901,11.2808265 13.1503002,11.3283839 12.958,11.4711931 C11.9485157,12.2089718 10.7467772,12.5897505 9.49691768,12.5897505 C8.24705811,12.5897505 7.04531961,12.2089718 6.03583535,11.4711931 C5.84353511,11.3283839 5.57914528,11.2570022 5.33881598,11.3046052 C3.41599758,11.5663991 1.68547942,12.6373536 0.603905569,14.2557202 C0.387590799,14.5651171 0.195290557,14.9221171 0.0511113801,15.2552928 C-0.0209782082,15.398102 0.00303631961,15.5646898 0.075125908,15.7074989 C0.26742615,16.0406746 0.507755448,16.3738959 0.724070218,16.6594685 C1.06054964,17.1116746 1.42108959,17.5162321 1.8297046,17.8970108 C2.16618402,18.2301866 2.5507385,18.5395835 2.93533898,18.8489805 C4.83409685,20.2531562 7.11745521,20.9908894 9.47290315,20.9908894 C11.8283511,20.9908894 14.1117094,20.2531106 16.0104673,18.8489805 C16.3950218,18.5634078 16.7795763,18.2301866 17.1161017,17.8970108 C17.5006562,17.5162321 17.8852107,17.1116291 18.2217361,16.6594685 C18.4620654,16.3500716 18.6784262,16.0406746 18.8706804,15.7074989 C18.990799,15.5646898 19.0148136,15.3980564 18.942724,15.2552928 Z" id="Path"></path>
                        </g>
                    </g>
                </g>
            </g>
        </g>
    </g>
</svg>