<?xml version="1.0" encoding="UTF-8"?>
<svg width="20px" height="20px" viewBox="0 0 20 20" version="1.1" xmlns="http://www.w3.org/2000/svg" xmlns:xlink="http://www.w3.org/1999/xlink">
    <!-- Generator: Sketch 55.2 (78181) - https://sketchapp.com -->
    <title>sort-by-attributes</title>
    <desc>Created with Sketch.</desc>
    <g id="Batch-2" stroke="none" stroke-width="1" fill="none" fill-rule="evenodd">
        <g id="Order-History---Tablet" transform="translate(-417.000000, -114.000000)" fill="#0069AA" fill-rule="nonzero">
            <g id="Group-2" transform="translate(417.000000, 114.000000)">
                <g id="sort-by-attributes">
                    <path d="M13.0787302,17.1303125 L10.1784524,17.1303125 C10.0726587,17.1303125 9.98587302,17.1637109 9.91785714,17.2308203 C9.85003968,17.2976562 9.81595238,17.3832031 9.81595238,17.4872266 L9.81595238,19.6284375 C9.81595238,19.7328516 9.84988095,19.8180078 9.91785714,19.8851172 C9.9859127,19.9519531 10.0726587,19.9853516 10.1784524,19.9853516 L13.0787302,19.9853516 C13.1845238,19.9853516 13.2714286,19.9519531 13.3391667,19.8851172 C13.4073413,19.8179688 13.440873,19.7328516 13.440873,19.6284375 L13.440873,17.4872266 C13.440873,17.3832031 13.4073016,17.2976172 13.3391667,17.2308203 C13.2714286,17.16375 13.1845238,17.1303125 13.0787302,17.1303125 Z" id="Path"></path>
                    <path d="M7.64047619,15.7027734 L5.46519841,15.7027734 L5.46519841,0.356875 C5.46519841,0.252851562 5.43130952,0.1671875 5.36329365,0.100351562 C5.29527778,0.0335546875 5.20849206,0 5.10265873,0 L2.92734127,0 C2.82166667,0 2.73464286,0.0333984375 2.66674603,0.1003125 C2.59892857,0.167304687 2.56484127,0.252851562 2.56484127,0.356835937 L2.56484127,15.7027344 L0.38952381,15.7027344 C0.223492063,15.7027344 0.11015873,15.7770312 0.0496825397,15.9257031 C-0.0108333333,16.0671484 0.0157539683,16.1971875 0.128928571,16.3161719 L3.75436508,19.8851172 C3.83746032,19.9517969 3.92424603,19.9851953 4.01496032,19.9851953 C4.11313492,19.9851953 4.20007937,19.9517969 4.27555556,19.8851172 L7.88968254,16.3273828 C7.96531746,16.2383594 8.00301587,16.1488281 8.00301587,16.0600391 C8.00301587,15.9555078 7.96892857,15.8702344 7.90111111,15.8028516 C7.83313492,15.7362109 7.74634921,15.7027734 7.64047619,15.7027734 Z" id="Path"></path>
                    <path d="M15.2539683,11.4203906 L10.1783333,11.4203906 C10.0725397,11.4203906 9.98575397,11.4537891 9.9177381,11.520625 C9.84988095,11.5874609 9.81583333,11.6730078 9.81583333,11.7769922 L9.81583333,13.9185156 C9.81583333,14.0225 9.8497619,14.1080859 9.9177381,14.1748828 C9.98575397,14.2417187 10.0725397,14.2751172 10.1783333,14.2751172 L15.2539683,14.2751172 C15.3597619,14.2751172 15.446627,14.2417187 15.5144048,14.1748828 C15.5824603,14.1080469 15.6165079,14.0225 15.6165079,13.9185156 L15.6165079,11.7769922 C15.6165079,11.6730078 15.5824603,11.5874219 15.5144048,11.520625 C15.4466667,11.4538281 15.3597619,11.4203906 15.2539683,11.4203906 Z" id="Path"></path>
                    <path d="M19.8652381,0.1003125 C19.7971825,0.0335546875 19.7103968,0 19.6046032,0 L10.1784524,0 C10.0726587,0 9.98587302,0.0333984375 9.91785714,0.1003125 C9.85003968,0.167304688 9.81595238,0.252851563 9.81595238,0.356835938 L9.81595238,2.49816406 C9.81595238,2.60230469 9.84988095,2.68773438 9.91785714,2.7546875 C9.9859127,2.82144531 10.0726587,2.855 10.1784524,2.855 L19.6046032,2.855 C19.7103968,2.855 19.7971825,2.82160156 19.8651984,2.7546875 C19.9330952,2.68773438 19.9670244,2.60230469 19.9670244,2.49816406 L19.9670244,0.356875 C19.9671825,0.252851563 19.9330952,0.167148438 19.8652381,0.1003125 Z" id="Path"></path>
                    <path d="M17.4293651,5.71019531 L10.1783333,5.71019531 C10.0725397,5.71019531 9.98575397,5.74359375 9.9177381,5.81058594 C9.84988095,5.8775 9.81583333,5.96292969 9.81583333,6.06710937 L9.81583333,8.20835937 C9.81583333,8.31253906 9.8497619,8.39796875 9.9177381,8.46488281 C9.98575397,8.53171875 10.0725397,8.56527344 10.1783333,8.56527344 L17.4293651,8.56527344 C17.5350397,8.56527344 17.6219444,8.531875 17.6900794,8.46488281 C17.7578571,8.39796875 17.7917857,8.31253906 17.7917857,8.20835937 L17.7917857,6.06710937 C17.7917857,5.96292969 17.7578571,5.87734375 17.6900794,5.81058594 C17.6217857,5.74375 17.534881,5.71019531 17.4293651,5.71019531 Z" id="Path"></path>
                </g>
            </g>
        </g>
    </g>
</svg>