<?xml version="1.0" encoding="UTF-8"?>
<svg width="28px" height="28px" viewBox="0 0 28 28" version="1.1" xmlns="http://www.w3.org/2000/svg" xmlns:xlink="http://www.w3.org/1999/xlink">
    <!-- Generator: Sketch 55.2 (78181) - https://sketchapp.com -->
    <title>Group 3</title>
    <desc>Created with Sketch.</desc>
    <g id="Symbols" stroke="none" stroke-width="1" fill="none" fill-rule="evenodd" opacity="0.772716704">
        <g id="Navigation---UnAuth---Desktop" transform="translate(-1162.000000, -88.000000)">
            <g id="Group-4">
                <g id="Group-7" transform="translate(1072.000000, 88.000000)">
                    <g id="Group-3" transform="translate(90.000000, 0.000000)">
                        <g id="Group-2">
                            <circle id="Oval" fill="#FFFFFF" cx="14" cy="14" r="14"></circle>
                            <path d="M20.2222108,10.6029412 L19.1241716,10.6029412 L19.1241716,9.16175345 C19.1241716,6.38040671 16.8255294,4.11764706 14,4.11764706 C11.1744706,4.11764706 8.87582843,6.38040671 8.87582843,9.16175345 L8.87582843,10.6029412 L7.77778922,10.6029412 C7.57547549,10.6029412 7.41176471,10.764094 7.41176471,10.9632466 L7.41176471,19.9706108 C7.41176471,20.7654308 8.06835784,21.4117647 8.87582843,21.4117647 L19.1242059,21.4117647 C19.9316422,21.4117647 20.5882353,20.7654308 20.5882353,19.970577 L20.5882353,10.9632466 C20.5882353,10.764094 20.4245245,10.6029412 20.2222108,10.6029412 Z M15.0959118,18.1293614 C15.1073382,18.2310319 15.0741225,18.333074 15.0047745,18.4094451 C14.9354265,18.4857824 14.8360539,18.529423 14.732049,18.529423 L13.2679853,18.529423 C13.1639804,18.529423 13.0646078,18.4857824 12.9952598,18.4094451 C12.9259118,18.3331078 12.8926618,18.2310657 12.9041225,18.1293614 L13.1350196,16.0854805 C12.7600735,15.8170163 12.5359706,15.3923309 12.5359706,14.9264706 C12.5359706,14.1316505 13.1925637,13.4852829 14.0000343,13.4852829 C14.8075049,13.4852829 15.464098,14.1316167 15.464098,14.9264706 C15.464098,15.3923309 15.2399951,15.8170163 14.865049,16.0854805 L15.0959118,18.1293614 Z M16.9280931,10.6029412 L11.0719069,10.6029412 L11.0719069,9.16175345 C11.0719069,7.57245106 12.3854706,6.27941176 14,6.27941176 C15.6145294,6.27941176 16.9280931,7.57245106 16.9280931,9.16175345 L16.9280931,10.6029412 L16.9280931,10.6029412 Z" id="Shape" fill="#414E57" fill-rule="nonzero"></path>
                        </g>
                        <g id="lock" transform="translate(7.411765, 4.941176)"></g>
                    </g>
                </g>
            </g>
        </g>
    </g>
</svg>