<?xml version="1.0" encoding="UTF-8"?>
<svg width="110px" height="110px" viewBox="0 0 110 110" version="1.1" xmlns="http://www.w3.org/2000/svg" xmlns:xlink="http://www.w3.org/1999/xlink">
    <!-- Generator: Sketch 55.2 (78181) - https://sketchapp.com -->
    <title>Illustration - 2</title>
    <desc>Created with Sketch.</desc>
    <g id="Batch-1" stroke="none" stroke-width="1" fill="none" fill-rule="evenodd">
        <g id="0---Homepage---Desktop" transform="translate(-825.000000, -460.000000)">
            <g id="Group-4" transform="translate(410.000000, 438.000000)">
                <g id="Illustration---2" transform="translate(417.000000, 24.000000)">
                    <g id="Group-9">
                        <circle id="Oval" stroke-opacity="0.11" stroke="#414E58" stroke-width="3.4" fill="#FFFFFF" cx="52.7" cy="52.7" r="52.7"></circle>
                        <polygon id="Rectangle" fill="#F1F4F5" points="41.65 28.9 87.55 28.9 87.55 44.2 61.2274258 44.2 41.65 40.8"></polygon>
                        <polygon id="Rectangle" fill="#F1F4F5" transform="translate(26.775000, 62.050000) scale(1, -1) rotate(-90.000000) translate(-26.775000, -62.050000) " points="12.325 51.425 41.225 51.425 41.225 72.675 24.6515273 72.675 12.325 67.9527778"></polygon>
                    </g>
                    <g id="gift-card2" transform="translate(14.450000, 25.500000)">
                        <path d="M69.7763672,0 L6.72363281,0 C3.01622168,0 0,3.05048 0,6.8 L0,47.6 C0,51.34952 3.01622168,54.4 6.72363281,54.4 L69.7763672,54.4 C73.4837783,54.4 76.5,51.34952 76.5,47.6 L76.5,6.8 C76.5,3.05048 73.4837783,0 69.7763672,0 Z M22.4121094,49.8666667 L6.72363281,49.8666667 C5.4878291,49.8666667 4.48242188,48.84984 4.48242188,47.6 L4.48242188,22.6666667 L9.33165527,22.6666667 C10.4498701,26.0433956 13.8780264,28.0773511 17.3527998,27.3888889 L13.8236396,32.7427556 C13.137082,33.7843644 13.4154404,35.1916622 14.4453516,35.8860178 C15.4751133,36.5802222 16.8667559,36.2988533 17.5533135,35.2572444 L22.4121094,27.8863467 L22.4121094,49.8666667 Z M13.4472656,20.3968267 C13.4472656,18.3332533 15.7165664,17.0983733 17.4194385,18.2468178 L20.6128652,20.4 L17.4194385,22.5531822 C15.7223936,23.6973956 13.4472656,22.4759644 13.4472656,20.3968267 Z M22.4121094,16.1646578 L19.9058379,14.4747822 C16.0364619,11.8658489 10.7971084,13.7092533 9.33240234,18.1331822 L4.48242188,18.1331822 L4.48242188,6.79984889 C4.48242188,5.55016 5.4878291,4.53333333 6.72363281,4.53333333 L22.4121094,4.53333333 L22.4121094,16.1646578 Z M72.0175781,47.6001511 C72.0175781,48.84984 71.0121709,49.8666667 69.7763672,49.8666667 L26.8945312,49.8666667 L26.8945312,27.8863467 L31.7533271,35.2573956 C32.4407813,36.3002133 33.8327227,36.5797689 34.8612891,35.8861689 C35.8912002,35.1916622 36.1695586,33.7843644 35.483001,32.7429067 L31.9538408,27.38904 C35.4127764,28.0741778 38.8509434,26.0595644 39.9742383,22.6668178 L72.0175781,22.6668178 L72.0175781,47.6001511 Z M28.6937754,20.4 L31.8872021,18.2468178 C33.5843965,17.1024533 35.859375,18.3240356 35.859375,20.4030222 C35.859375,22.4700711 33.5869365,23.69936 31.8872021,22.5530311 L28.6937754,20.4 Z M72.0175781,18.1333333 L39.9749854,18.1333333 C38.5099805,13.7098578 33.270627,11.8656978 29.4008027,14.4749333 L26.8945312,16.1646578 L26.8945312,4.53333333 L69.7763672,4.53333333 C71.0121709,4.53333333 72.0175781,5.55016 72.0175781,6.8 L72.0175781,18.1333333 Z" id="Shape" fill="#414E58" fill-rule="nonzero"></path>
                        <path d="M65.2939453,31.7333333 L47.0654297,31.7333333 C45.8276836,31.7333333 44.8242188,32.7481956 44.8242188,34 C44.8242188,35.2518044 45.8276836,36.2666667 47.0654297,36.2666667 L65.2939453,36.2666667 C66.5316914,36.2666667 67.5351563,35.2518044 67.5351563,34 C67.5351563,32.7481956 66.5316914,31.7333333 65.2939453,31.7333333 Z" id="Path" fill="#F58025" fill-rule="nonzero"></path>
                        <path d="M65.2939453,40.8 L47.0654297,40.8 C45.8276836,40.8 44.8242188,41.8148622 44.8242188,43.0666667 C44.8242188,44.3184711 45.8276836,45.3333333 47.0654297,45.3333333 L65.2939453,45.3333333 C66.5316914,45.3333333 67.5351563,44.3184711 67.5351563,43.0666667 C67.5351563,41.8148622 66.5316914,40.8 65.2939453,40.8 Z" id="Path" fill="#F58025" fill-rule="nonzero"></path>
                    </g>
                </g>
            </g>
        </g>
    </g>
</svg>